HIERARCHY
ROOT Hips
{
	OFFSET 0.000000 0.000000 0.000000
	CHANNELS 6 Xposition Yposition Zposition Zrotation Yrotation Xrotation 
	JOINT LHipJoint
	{
		OFFSET 0.000000 0.000000 0.000000
		CHANNELS 3 Zrotation Yrotation Xrotation
		JOINT LeftUpLeg
		{
			OFFSET 1.363060 -1.794630 0.839290
			CHANNELS 3 Zrotation Yrotation Xrotation
			JOINT LeftLeg
			{
				OFFSET 2.448110 -6.726130 0.000000
				CHANNELS 3 Zrotation Yrotation Xrotation
				JOINT LeftFoot
				{
					OFFSET 2.562200 -7.039590 0.000000
					CHANNELS 3 Zrotation Yrotation Xrotation
					JOINT LeftToeBase
					{
						OFFSET 0.157640 -0.433110 2.322550
						CHANNELS 3 Zrotation Yrotation Xrotation
						End Site
						{
							OFFSET 0.000000 0.000000 0.000000
						}
					}
				}
			}
		}
	}
	JOINT RHipJoint
	{
		OFFSET 0.000000 0.000000 0.000000
		CHANNELS 3 Zrotation Yrotation Xrotation
		JOINT RightUpLeg
		{
			OFFSET -1.305520 -1.794630 0.839290
			CHANNELS 3 Zrotation Yrotation Xrotation
			JOINT RightLeg
			{
				OFFSET -2.542530 -6.985550 0.000000
				CHANNELS 3 Zrotation Yrotation Xrotation
				JOINT RightFoot
				{
					OFFSET -2.568260 -7.056230 0.000000
					CHANNELS 3 Zrotation Yrotation Xrotation
					JOINT RightToeBase
					{
						OFFSET -0.164730 -0.452590 2.363150
						CHANNELS 3 Zrotation Yrotation Xrotation
						End Site
						{
							OFFSET 0.000000 0.000000 0.000000
						}
					}
				}
			}
		}
	}
	JOINT LowerBack
	{
		OFFSET 0.000000 0.000000 0.000000
		CHANNELS 3 Zrotation Yrotation Xrotation
		JOINT Spine
		{
			OFFSET 0.028270 2.035590 -0.193380
			CHANNELS 3 Zrotation Yrotation Xrotation
			JOINT Spine1
			{
				OFFSET 0.056720 2.048850 -0.042750
				CHANNELS 3 Zrotation Yrotation Xrotation
				JOINT Neck
				{
					OFFSET 0.000000 0.000000 0.000000
					CHANNELS 3 Zrotation Yrotation Xrotation
					JOINT Neck1
					{
						OFFSET -0.054170 1.746240 0.172020
						CHANNELS 3 Zrotation Yrotation Xrotation
						JOINT Head
						{
							OFFSET 0.104070 1.761360 -0.123970
							CHANNELS 3 Zrotation Yrotation Xrotation
							End Site
							{
								OFFSET 0.000000 0.000000 0.000000
							}
						}
					}
				}
				JOINT LeftShoulder
				{
					OFFSET 0.000000 0.000000 0.000000
					CHANNELS 3 Zrotation Yrotation Xrotation
					JOINT LeftArm
					{
						OFFSET 3.362410 1.200890 -0.311210
						CHANNELS 3 Zrotation Yrotation Xrotation
						JOINT LeftForeArm
						{
							OFFSET 4.983000 -0.000000 -0.000000
							CHANNELS 3 Zrotation Yrotation Xrotation
							JOINT LeftHand
							{
								OFFSET 3.483560 -0.000000 -0.000000
								CHANNELS 3 Zrotation Yrotation Xrotation
								JOINT LeftFingerBase
								{
									OFFSET 0.000000 0.000000 0.000000
									CHANNELS 3 Zrotation Yrotation Xrotation
									JOINT LeftHandIndex1
									{
										OFFSET 0.715260 -0.000000 -0.000000
										CHANNELS 3 Zrotation Yrotation Xrotation
										End Site
										{
											OFFSET 0.000000 0.000000 0.000000
										}
									}
								}
								JOINT LThumb
								{
									OFFSET 0.000000 0.000000 0.000000
									CHANNELS 3 Zrotation Yrotation Xrotation
									End Site
									{
										OFFSET 0.000000 0.000000 0.000000
									}
								}
							}
						}
					}
				}
				JOINT RightShoulder
				{
					OFFSET 0.000000 0.000000 0.000000
					CHANNELS 3 Zrotation Yrotation Xrotation
					JOINT RightArm
					{
						OFFSET -3.136600 1.374050 -0.404650
						CHANNELS 3 Zrotation Yrotation Xrotation
						JOINT RightForeArm
						{
							OFFSET -5.241900 -0.000000 -0.000000
							CHANNELS 3 Zrotation Yrotation Xrotation
							JOINT RightHand
							{
								OFFSET -3.444170 -0.000000 -0.000000
								CHANNELS 3 Zrotation Yrotation Xrotation
								JOINT RightFingerBase
								{
									OFFSET 0.000000 0.000000 0.000000
									CHANNELS 3 Zrotation Yrotation Xrotation
									JOINT RightHandIndex1
									{
										OFFSET -0.622530 -0.000000 -0.000000
										CHANNELS 3 Zrotation Yrotation Xrotation
										End Site
										{
											OFFSET 0.000000 0.000000 0.000000
										}
									}
								}
								JOINT RThumb
								{
									OFFSET 0.000000 0.000000 0.000000
									CHANNELS 3 Zrotation Yrotation Xrotation
									End Site
									{
										OFFSET 0.000000 0.000000 0.000000
									}
								}
							}
						}
					}
				}
			}
		}
	}
}
MOTION
Frames: 11
Frame Time: 0.008333
22.950285 16.064759 2.211664 141.894389 -87.617683 -101.365146 -6.868147 -0.547037 3.192293 -10.628407 -13.518297 -71.022368 -1.713162 1.628023 40.431600 2.935764 9.567011 -14.179076 -0.490800 0.000000 -26.770800 12.055651 -1.769168 -1.062212 3.005157 3.066958 -16.873560 -0.301963 -2.131066 39.287963 -2.327347 -12.568195 4.005181 -2.773200 -0.000001 -55.047400 -7.287837 1.449497 0.956344 -2.688810 1.723719 -2.474514 -5.537734 1.640309 1.425816 5.859362 2.176557 2.567360 -2.774810 -0.315987 2.296581 0.000000 0.000000 0.000000 1.735220 3.643625 2.413242 -35.659153 9.731826 3.281602 -4.483656 -12.887394 -0.012160 -0.206161 3.491537 -0.000158 -0.198931 -0.036063 -0.000000 0.000000 0.000000 0.000000 0.000000 0.000000 0.000000 9.601610 4.212392 -2.064821 83.873232 34.790127 44.466095 1.458076 61.520845 0.014268 2.060432 9.957270 0.185157 0.009853 -0.324000 -0.000000 0.000000 0.000000 0.000000 0.000000 0.000000 0.000000 
22.764413 15.932004 2.212683 138.267828 -87.609287 -97.858211 -6.750703 -0.626382 3.014983 -10.577852 -14.153144 -71.887633 -1.387663 1.929163 44.496309 3.145473 10.199554 -15.852152 -0.910000 -0.000000 -24.781000 12.243116 -1.654089 -1.203703 2.727901 2.823902 -17.618762 -0.385678 -2.326706 42.338930 -2.351728 -12.610923 2.626606 -2.472700 -0.000000 -54.213800 -7.602620 1.367832 1.313902 -2.776581 1.650422 -2.428005 -5.620739 1.568764 1.279750 6.163148 2.379735 2.519428 -2.818373 -0.317421 2.278319 0.000000 0.000000 0.000000 1.623382 3.134816 2.507991 -35.183552 10.302277 4.340290 -4.485121 -13.386250 -0.011799 -0.169007 3.410150 0.000949 -0.198158 -0.037453 -0.000000 0.000000 0.000000 0.000000 0.000000 0.000000 0.000000 10.156080 4.452724 -1.935882 83.119254 34.743772 43.597278 1.414924 62.154298 0.013718 1.930063 10.188393 0.177657 0.008565 -0.335283 -0.000000 0.000000 0.000000 0.000000 0.000000 0.000000 0.000000 
22.580820 15.802660 2.210814 134.217344 -87.543532 -93.972222 -6.617958 -0.686409 2.808453 -10.660613 -14.778217 -72.515317 -1.098162 2.189076 48.320869 3.364505 10.889106 -17.651005 -1.401201 0.000000 -23.127800 12.453863 -1.513163 -1.368759 2.393047 2.573093 -18.362770 -0.477447 -2.530898 45.413084 -2.352735 -12.530905 1.228063 -2.143300 0.000001 -53.355801 -7.960615 1.305625 1.743208 -2.878275 1.595252 -2.374176 -5.718589 1.515402 1.101140 6.514490 2.650638 2.521376 -2.873936 -0.320020 2.270590 0.000000 0.000000 0.000000 1.395579 2.470675 2.600654 -34.587388 10.851272 5.345857 -4.500199 -13.770883 -0.011270 -0.210095 3.266444 -0.000345 -0.197216 -0.038654 -0.000000 0.000000 0.000000 0.000000 0.000000 0.000000 0.000000 10.811886 4.750387 -1.798510 82.324347 34.579643 42.436788 1.369730 62.651488 0.012785 1.750147 10.414003 0.164854 0.007091 -0.346879 -0.000000 0.000000 0.000000 0.000000 0.000000 0.000000 0.000000 
22.399048 15.678772 2.206679 130.154720 -87.419415 -90.112081 -6.482615 -0.724981 2.572984 -10.883404 -15.367237 -72.888007 -0.850926 2.412701 51.837031 3.589244 11.618020 -19.544195 -1.963700 -0.000000 -21.879100 12.675298 -1.350317 -1.555241 2.017930 2.331372 -19.112590 -0.577347 -2.743115 48.493695 -2.337246 -12.369530 -0.188587 -1.802700 0.000000 -52.462499 -8.353511 1.265254 2.241240 -2.990545 1.559736 -2.309287 -5.827367 1.481927 0.906009 6.904523 2.971181 2.557803 -2.941107 -0.323495 2.268844 0.000000 0.000000 0.000000 1.067389 1.750721 2.688885 -33.908506 11.193981 6.287360 -4.528681 -13.916947 -0.010585 -0.313939 3.063336 -0.003142 -0.196221 -0.039253 -0.000000 0.000000 0.000000 0.000000 0.000000 0.000000 0.000000 11.558381 5.078994 -1.662903 81.506964 34.309399 41.017735 1.321312 62.994082 0.011304 1.487835 10.644087 0.143350 0.005865 -0.358400 -0.000000 0.000000 0.000000 0.000000 0.000000 0.000000 0.000000 
22.218519 15.562023 2.201083 126.403813 -87.244687 -86.590622 -6.357384 -0.743469 2.312942 -11.237861 -15.894614 -73.003310 -0.647871 2.605282 54.999634 3.814655 12.362730 -21.491094 -2.590400 0.000000 -21.067000 12.894788 -1.173291 -1.757126 1.625658 2.110559 -19.881285 -0.685017 -2.962174 51.559493 -2.312293 -12.168412 -1.613272 -1.465800 -0.000001 -51.521400 -8.762925 1.247237 2.793971 -3.108157 1.543208 -2.238015 -5.945420 1.467150 0.690312 7.319594 3.347597 2.633679 -3.018168 -0.327810 2.274900 0.000000 0.000000 0.000000 0.631131 0.950722 2.772624 -33.167985 11.373334 7.122304 -4.570120 -13.838778 -0.009877 -0.467583 2.838571 -0.006742 -0.195327 -0.039307 -0.000000 0.000000 0.000000 0.000000 0.000000 0.000000 0.000000 12.372013 5.441523 -1.530645 80.681012 33.907197 39.337878 1.268366 63.171079 0.009148 1.127063 10.883639 0.111144 0.005007 -0.369652 -0.000000 0.000000 0.000000 0.000000 0.000000 0.000000 0.000000 
22.038717 15.453731 2.195049 123.137445 -87.036658 -83.571954 -6.251531 -0.746213 2.032529 -11.702307 -16.336245 -72.871818 -0.487743 2.771600 57.787318 4.034106 13.094436 -23.445142 -3.266800 -0.000000 -20.688400 13.102662 -0.989772 -1.969231 1.242878 1.915125 -20.684380 -0.799903 -3.187105 54.591555 -2.283995 -11.962799 -3.033845 -1.142500 0.000000 -50.510800 -9.167166 1.250648 3.387750 -3.224853 1.543937 -2.159340 -6.067816 1.469350 0.468902 7.746587 3.760569 2.734568 -3.104036 -0.332680 2.285078 0.000000 0.000000 0.000000 0.118523 0.144713 2.849900 -32.434796 11.268088 7.784062 -4.620985 -13.459502 -0.009209 -0.632455 2.618905 -0.010145 -0.194665 -0.038261 -0.000000 0.000000 0.000000 0.000000 0.000000 0.000000 0.000000 13.233309 5.811545 -1.409333 79.862309 33.390116 37.447788 1.210110 63.165856 0.006159 0.638681 11.143635 0.064533 0.004947 -0.380160 -0.000000 0.000000 0.000000 0.000000 0.000000 0.000000 0.000000 
21.858590 15.354820 2.189587 120.400847 -86.815867 -81.090795 -6.172358 -0.737510 1.739380 -12.246125 -16.672559 -72.516463 -0.367589 2.915414 60.195800 4.240078 13.781101 -25.357304 -3.970200 -0.000001 -20.708400 13.291339 -0.807319 -2.184327 0.895647 1.744200 -21.539283 -0.921716 -3.415490 57.569829 -2.257577 -11.781926 -4.435275 -0.838600 0.000000 -49.415100 -9.540437 1.273580 4.001426 -3.334013 1.559504 -2.077906 -6.191976 1.485633 0.243628 8.170067 4.204808 2.859691 -3.196864 -0.338006 2.300034 0.000000 0.000000 0.000000 -0.458252 -0.677850 2.920271 -31.755708 10.916639 8.190882 -4.676491 -12.808652 -0.008700 -0.767697 2.452308 -0.012454 -0.194282 -0.035850 -0.000000 0.000000 0.000000 0.000000 0.000000 0.000000 0.000000 14.116505 6.181326 -1.299723 79.063280 32.753977 35.376061 1.146059 62.965510 0.002250 0.010457 11.428841 0.001023 0.005833 -0.389560 -0.000000 0.000000 0.000000 0.000000 0.000000 0.000000 0.000000 
21.677346 15.265903 2.185675 118.152658 -86.601665 -79.095714 -6.125804 -0.721484 1.442426 -12.834671 -16.889626 -71.968744 -0.283641 3.039806 62.235059 4.424978 14.390849 -27.181091 -4.672300 -0.000000 -21.059600 13.454252 -0.631927 -2.395255 0.607109 1.592005 -22.463908 -1.050115 -3.643854 60.473992 -2.237111 -11.647027 -5.801681 -0.556200 0.000000 -48.224501 -9.855242 1.311836 4.611763 -3.428594 1.585830 -1.999369 -6.315765 1.511384 0.014618 8.570716 4.686245 3.010039 -3.293283 -0.343630 2.321132 0.000000 0.000000 0.000000 -1.102498 -1.520301 2.984176 -31.152663 10.369729 8.306409 -4.730701 -11.950168 -0.008469 -0.823445 2.386070 -0.013264 -0.194121 -0.031885 -0.000000 0.000000 0.000000 0.000000 0.000000 0.000000 0.000000 14.983857 6.556133 -1.203763 78.304922 31.981761 33.133196 1.075178 62.561947 -0.002578 -0.748657 11.738538 -0.079892 0.007411 -0.397473 -0.000000 0.000000 0.000000 0.000000 0.000000 0.000000 0.000000 
21.494637 15.187243 2.184153 116.308283 -86.411674 -77.492120 -6.115030 -0.701745 1.149271 -13.433693 -16.980615 -71.265822 -0.231700 3.147341 63.927970 4.582177 14.895504 -28.878304 -5.342600 -0.000000 -21.645200 13.587262 -0.466866 -2.597181 0.394515 1.448535 -23.472752 -1.184357 -3.868691 63.286311 -2.225316 -11.570367 -7.121292 -0.294100 -0.000000 -46.928000 -10.091734 1.360493 5.200289 -3.502782 1.619085 -1.922129 -6.433028 1.543157 -0.197832 8.931026 5.189725 3.165909 -3.390365 -0.349111 2.343597 0.000000 0.000000 0.000000 -1.782038 -2.265445 3.039297 -30.679130 9.467937 8.112747 -4.774004 -10.845261 -0.008521 -0.727472 2.435584 -0.011479 -0.193853 -0.025576 -0.000000 0.000000 0.000000 0.000000 0.000000 0.000000 0.000000 15.800574 6.917490 -1.130856 77.612015 31.096237 30.761365 0.996980 61.943632 -0.008255 -1.628812 12.071363 -0.178713 0.009526 -0.403269 -0.000000 0.000000 0.000000 0.000000 0.000000 0.000000 0.000000 
21.309422 15.118900 2.185544 114.763745 -86.257249 -76.170088 -6.140838 -0.679752 0.868823 -14.015022 -16.946616 -70.445541 -0.207708 3.240153 65.304150 4.707090 15.274154 -30.421528 -5.952700 -0.000000 -22.355300 13.688422 -0.313545 -2.784665 0.267951 1.301058 -24.577757 -1.323317 -4.086121 65.989234 -2.223840 -11.556998 -8.385423 -0.049300 0.000001 -45.521200 -10.239003 1.414422 5.746260 -3.553602 1.655687 -1.848785 -6.541062 1.577408 -0.385351 9.239776 5.699967 3.320506 -3.486235 -0.354301 2.366554 0.000000 0.000000 0.000000 -2.473890 -2.898404 3.085129 -30.372182 8.225357 7.542188 -4.795661 -9.556160 -0.008901 -0.407974 2.612595 -0.004896 -0.192877 -0.016488 0.000000 0.000000 0.000000 0.000000 0.000000 0.000000 0.000000 16.545265 7.251592 -1.079820 76.995763 30.117416 28.300121 0.911906 61.099210 -0.014615 -2.620142 12.419151 -0.295636 0.012151 -0.406517 -0.000000 0.000000 0.000000 0.000000 0.000000 0.000000 0.000000 
21.121373 15.060840 2.190011 113.411889 -86.143345 -75.017865 -6.202728 -0.655404 0.610780 -14.557673 -16.795774 -69.544251 -0.207817 3.320047 66.396804 4.797765 15.515509 -31.795962 -6.480900 -0.000001 -23.084199 13.756876 -0.172424 -2.951870 0.229773 1.136734 -25.785541 -1.465251 -4.292254 68.564870 -2.233381 -11.605954 -9.588148 0.181800 -0.000001 -44.014900 -10.292296 1.468296 6.228021 -3.580126 1.691910 -1.786966 -6.640690 1.609855 -0.555378 9.490037 6.216428 3.484846 -3.578429 -0.359302 2.394324 0.000000 0.000000 0.000000 -3.178622 -3.511519 3.125430 -30.235475 6.850135 6.538594 -4.786306 -8.271403 -0.009724 0.197330 2.924223 0.009887 -0.190418 -0.004910 -0.000000 0.000000 0.000000 0.000000 0.000000 0.000000 0.000000 17.200997 7.564722 -1.040360 76.460622 29.040163 25.758264 0.820448 60.025126 -0.021412 -3.699383 12.763385 -0.428765 0.015076 -0.407040 -0.000000 0.000000 0.000000 0.000000 0.000000 0.000000 0.000000 
